<mxfile host="Electron" modified="2024-07-17T01:44:05.172Z" agent="Mozilla/5.0 (Windows NT 10.0; Win64; x64) AppleWebKit/537.36 (KHTML, like Gecko) draw.io/24.4.8 Chrome/124.0.6367.207 Electron/30.0.6 Safari/537.36" etag="SUArOYhHXy7f3bERg75U" version="24.4.8" type="device">
  <diagram name="第 1 页" id="5mdRfByDDz3yO2vetsfR">
    <mxGraphModel dx="814" dy="599" grid="1" gridSize="10" guides="1" tooltips="1" connect="1" arrows="1" fold="1" page="1" pageScale="1" pageWidth="827" pageHeight="1169" math="0" shadow="0">
      <root>
        <mxCell id="0" />
        <mxCell id="1" parent="0" />
        <mxCell id="bO7SMT0OaXXxyepgt4Vs-4" style="edgeStyle=orthogonalEdgeStyle;rounded=0;orthogonalLoop=1;jettySize=auto;html=1;entryX=0.538;entryY=0;entryDx=0;entryDy=0;entryPerimeter=0;" parent="1" source="jSvjcwtI-bgLR1o23KVw-1" edge="1" target="jSvjcwtI-bgLR1o23KVw-9">
          <mxGeometry relative="1" as="geometry">
            <mxPoint x="740" y="250" as="targetPoint" />
          </mxGeometry>
        </mxCell>
        <mxCell id="bO7SMT0OaXXxyepgt4Vs-5" value="Sells" style="edgeLabel;html=1;align=center;verticalAlign=middle;resizable=0;points=[];" parent="bO7SMT0OaXXxyepgt4Vs-4" vertex="1" connectable="0">
          <mxGeometry x="0.2394" relative="1" as="geometry">
            <mxPoint y="-21" as="offset" />
          </mxGeometry>
        </mxCell>
        <mxCell id="NhowBKx1JFpCzWd0IGJK-15" value="1..m" style="edgeLabel;html=1;align=center;verticalAlign=middle;resizable=0;points=[];labelBackgroundColor=none;" vertex="1" connectable="0" parent="bO7SMT0OaXXxyepgt4Vs-4">
          <mxGeometry x="-0.8639" y="1" relative="1" as="geometry">
            <mxPoint x="9" as="offset" />
          </mxGeometry>
        </mxCell>
        <mxCell id="NhowBKx1JFpCzWd0IGJK-16" value="0..m" style="edgeLabel;html=1;align=center;verticalAlign=middle;resizable=0;points=[];" vertex="1" connectable="0" parent="bO7SMT0OaXXxyepgt4Vs-4">
          <mxGeometry x="0.7127" y="-1" relative="1" as="geometry">
            <mxPoint x="-19" y="6" as="offset" />
          </mxGeometry>
        </mxCell>
        <mxCell id="jSvjcwtI-bgLR1o23KVw-1" value="KOL" style="swimlane;fontStyle=1;align=center;verticalAlign=top;childLayout=stackLayout;horizontal=1;startSize=26;horizontalStack=0;resizeParent=1;resizeParentMax=0;resizeLast=0;collapsible=1;marginBottom=0;whiteSpace=wrap;html=1;" parent="1" vertex="1">
          <mxGeometry x="660" y="10" width="160" height="138" as="geometry" />
        </mxCell>
        <mxCell id="jSvjcwtI-bgLR1o23KVw-2" value="- name: Text&lt;div&gt;- title: Text&lt;br&gt;&lt;/div&gt;&lt;div&gt;-index: Number - int&lt;/div&gt;&lt;div&gt;- description: RichText&lt;br&gt;&lt;/div&gt;&lt;div&gt;- products: Relation&lt;br&gt;&lt;/div&gt;&lt;div&gt;- image: Media&lt;br&gt;&lt;/div&gt;&lt;div&gt;- views: Number - int&lt;/div&gt;" style="text;strokeColor=none;fillColor=none;align=left;verticalAlign=top;spacingLeft=4;spacingRight=4;overflow=hidden;rotatable=0;points=[[0,0.5],[1,0.5]];portConstraint=eastwest;whiteSpace=wrap;html=1;" parent="jSvjcwtI-bgLR1o23KVw-1" vertex="1">
          <mxGeometry y="26" width="160" height="104" as="geometry" />
        </mxCell>
        <mxCell id="jSvjcwtI-bgLR1o23KVw-3" value="" style="line;strokeWidth=1;fillColor=none;align=left;verticalAlign=middle;spacingTop=-1;spacingLeft=3;spacingRight=3;rotatable=0;labelPosition=right;points=[];portConstraint=eastwest;strokeColor=inherit;" parent="jSvjcwtI-bgLR1o23KVw-1" vertex="1">
          <mxGeometry y="130" width="160" height="8" as="geometry" />
        </mxCell>
        <mxCell id="jSvjcwtI-bgLR1o23KVw-5" value="Event" style="swimlane;fontStyle=1;align=center;verticalAlign=top;childLayout=stackLayout;horizontal=1;startSize=26;horizontalStack=0;resizeParent=1;resizeParentMax=0;resizeLast=0;collapsible=1;marginBottom=0;whiteSpace=wrap;html=1;" parent="1" vertex="1">
          <mxGeometry x="30" y="310" width="160" height="118" as="geometry" />
        </mxCell>
        <mxCell id="jSvjcwtI-bgLR1o23KVw-6" value="- name: Text&lt;div&gt;- description: Rich&amp;nbsp;&lt;span style=&quot;background-color: initial;&quot;&gt;Text&lt;/span&gt;&lt;br&gt;&lt;/div&gt;&lt;div&gt;- index: Number&lt;/div&gt;&lt;div&gt;- time： Date - int&lt;/div&gt;&lt;div&gt;- image: Media&lt;/div&gt;" style="text;strokeColor=none;fillColor=none;align=left;verticalAlign=top;spacingLeft=4;spacingRight=4;overflow=hidden;rotatable=0;points=[[0,0.5],[1,0.5]];portConstraint=eastwest;whiteSpace=wrap;html=1;" parent="jSvjcwtI-bgLR1o23KVw-5" vertex="1">
          <mxGeometry y="26" width="160" height="84" as="geometry" />
        </mxCell>
        <mxCell id="jSvjcwtI-bgLR1o23KVw-7" value="" style="line;strokeWidth=1;fillColor=none;align=left;verticalAlign=middle;spacingTop=-1;spacingLeft=3;spacingRight=3;rotatable=0;labelPosition=right;points=[];portConstraint=eastwest;strokeColor=inherit;" parent="jSvjcwtI-bgLR1o23KVw-5" vertex="1">
          <mxGeometry y="110" width="160" height="8" as="geometry" />
        </mxCell>
        <mxCell id="jSvjcwtI-bgLR1o23KVw-9" value="Product" style="swimlane;fontStyle=1;align=center;verticalAlign=top;childLayout=stackLayout;horizontal=1;startSize=26;horizontalStack=0;resizeParent=1;resizeParentMax=0;resizeLast=0;collapsible=1;marginBottom=0;whiteSpace=wrap;html=1;" parent="1" vertex="1">
          <mxGeometry x="654" y="260" width="160" height="158" as="geometry" />
        </mxCell>
        <mxCell id="jSvjcwtI-bgLR1o23KVw-10" value="- name: Text&lt;div&gt;- price: Number&lt;/div&gt;&lt;div&gt;- title:&amp;nbsp;&lt;span style=&quot;background-color: initial;&quot;&gt;Text&lt;/span&gt;&lt;br&gt;&lt;/div&gt;&lt;div&gt;- description: Rich&amp;nbsp;&lt;span style=&quot;background-color: initial;&quot;&gt;Text&lt;/span&gt;&lt;br&gt;&lt;/div&gt;&lt;div&gt;- related-kols: Relation&lt;br&gt;&lt;/div&gt;&lt;div&gt;- image: Media&lt;br&gt;&lt;/div&gt;&lt;div&gt;- index: Number -int&lt;/div&gt;&lt;div&gt;- views: Number - int&lt;/div&gt;" style="text;strokeColor=none;fillColor=none;align=left;verticalAlign=top;spacingLeft=4;spacingRight=4;overflow=hidden;rotatable=0;points=[[0,0.5],[1,0.5]];portConstraint=eastwest;whiteSpace=wrap;html=1;" parent="jSvjcwtI-bgLR1o23KVw-9" vertex="1">
          <mxGeometry y="26" width="160" height="124" as="geometry" />
        </mxCell>
        <mxCell id="jSvjcwtI-bgLR1o23KVw-11" value="" style="line;strokeWidth=1;fillColor=none;align=left;verticalAlign=middle;spacingTop=-1;spacingLeft=3;spacingRight=3;rotatable=0;labelPosition=right;points=[];portConstraint=eastwest;strokeColor=inherit;" parent="jSvjcwtI-bgLR1o23KVw-9" vertex="1">
          <mxGeometry y="150" width="160" height="8" as="geometry" />
        </mxCell>
        <mxCell id="bO7SMT0OaXXxyepgt4Vs-6" style="edgeStyle=orthogonalEdgeStyle;rounded=0;orthogonalLoop=1;jettySize=auto;html=1;" parent="1" source="jSvjcwtI-bgLR1o23KVw-13" edge="1">
          <mxGeometry relative="1" as="geometry">
            <mxPoint x="110" y="310" as="targetPoint" />
          </mxGeometry>
        </mxCell>
        <mxCell id="bO7SMT0OaXXxyepgt4Vs-7" value="Attends" style="edgeLabel;html=1;align=center;verticalAlign=middle;resizable=0;points=[];" parent="bO7SMT0OaXXxyepgt4Vs-6" vertex="1" connectable="0">
          <mxGeometry x="-0.2702" y="3" relative="1" as="geometry">
            <mxPoint x="-3" y="10" as="offset" />
          </mxGeometry>
        </mxCell>
        <mxCell id="NhowBKx1JFpCzWd0IGJK-8" value="0..m" style="edgeLabel;html=1;align=center;verticalAlign=middle;resizable=0;points=[];" vertex="1" connectable="0" parent="bO7SMT0OaXXxyepgt4Vs-6">
          <mxGeometry x="-0.8819" y="1" relative="1" as="geometry">
            <mxPoint x="19" as="offset" />
          </mxGeometry>
        </mxCell>
        <mxCell id="NhowBKx1JFpCzWd0IGJK-10" value="0..m" style="edgeLabel;html=1;align=center;verticalAlign=middle;resizable=0;points=[];" vertex="1" connectable="0" parent="bO7SMT0OaXXxyepgt4Vs-6">
          <mxGeometry x="0.4209" y="1" relative="1" as="geometry">
            <mxPoint x="-21" y="26" as="offset" />
          </mxGeometry>
        </mxCell>
        <mxCell id="jSvjcwtI-bgLR1o23KVw-13" value="User" style="swimlane;fontStyle=1;align=center;verticalAlign=top;childLayout=stackLayout;horizontal=1;startSize=26;horizontalStack=0;resizeParent=1;resizeParentMax=0;resizeLast=0;collapsible=1;marginBottom=0;whiteSpace=wrap;html=1;" parent="1" vertex="1">
          <mxGeometry x="30" y="10" width="160" height="178" as="geometry" />
        </mxCell>
        <mxCell id="jSvjcwtI-bgLR1o23KVw-14" value="- username: Text&lt;div&gt;- email: Email&lt;/div&gt;&lt;div&gt;- password: Password&lt;br&gt;&lt;div&gt;- bio: String&lt;/div&gt;&lt;div&gt;- icon: Media&lt;br&gt;&lt;/div&gt;&lt;/div&gt;&lt;div&gt;- cart: Relation&lt;/div&gt;&lt;div&gt;- attended_events: Relation&lt;/div&gt;&lt;div&gt;- reg_time: Date&lt;/div&gt;&lt;div&gt;- logins: Number&lt;/div&gt;" style="text;strokeColor=none;fillColor=none;align=left;verticalAlign=top;spacingLeft=4;spacingRight=4;overflow=hidden;rotatable=0;points=[[0,0.5],[1,0.5]];portConstraint=eastwest;whiteSpace=wrap;html=1;" parent="jSvjcwtI-bgLR1o23KVw-13" vertex="1">
          <mxGeometry y="26" width="160" height="144" as="geometry" />
        </mxCell>
        <mxCell id="jSvjcwtI-bgLR1o23KVw-15" value="" style="line;strokeWidth=1;fillColor=none;align=left;verticalAlign=middle;spacingTop=-1;spacingLeft=3;spacingRight=3;rotatable=0;labelPosition=right;points=[];portConstraint=eastwest;strokeColor=inherit;" parent="jSvjcwtI-bgLR1o23KVw-13" vertex="1">
          <mxGeometry y="170" width="160" height="8" as="geometry" />
        </mxCell>
        <mxCell id="NhowBKx1JFpCzWd0IGJK-1" value="Cart" style="swimlane;fontStyle=1;align=center;verticalAlign=top;childLayout=stackLayout;horizontal=1;startSize=26;horizontalStack=0;resizeParent=1;resizeParentMax=0;resizeLast=0;collapsible=1;marginBottom=0;whiteSpace=wrap;html=1;" vertex="1" parent="1">
          <mxGeometry x="350" y="65" width="160" height="68" as="geometry" />
        </mxCell>
        <mxCell id="NhowBKx1JFpCzWd0IGJK-2" value="- items: Relation" style="text;strokeColor=none;fillColor=none;align=left;verticalAlign=top;spacingLeft=4;spacingRight=4;overflow=hidden;rotatable=0;points=[[0,0.5],[1,0.5]];portConstraint=eastwest;whiteSpace=wrap;html=1;" vertex="1" parent="NhowBKx1JFpCzWd0IGJK-1">
          <mxGeometry y="26" width="160" height="34" as="geometry" />
        </mxCell>
        <mxCell id="NhowBKx1JFpCzWd0IGJK-3" value="" style="line;strokeWidth=1;fillColor=none;align=left;verticalAlign=middle;spacingTop=-1;spacingLeft=3;spacingRight=3;rotatable=0;labelPosition=right;points=[];portConstraint=eastwest;strokeColor=inherit;" vertex="1" parent="NhowBKx1JFpCzWd0IGJK-1">
          <mxGeometry y="60" width="160" height="8" as="geometry" />
        </mxCell>
        <mxCell id="NhowBKx1JFpCzWd0IGJK-4" style="edgeStyle=orthogonalEdgeStyle;rounded=0;orthogonalLoop=1;jettySize=auto;html=1;" edge="1" parent="1" source="jSvjcwtI-bgLR1o23KVw-14" target="NhowBKx1JFpCzWd0IGJK-2">
          <mxGeometry relative="1" as="geometry" />
        </mxCell>
        <mxCell id="NhowBKx1JFpCzWd0IGJK-7" value="Have" style="edgeLabel;html=1;align=center;verticalAlign=middle;resizable=0;points=[];" vertex="1" connectable="0" parent="NhowBKx1JFpCzWd0IGJK-4">
          <mxGeometry x="-0.0276" y="-1" relative="1" as="geometry">
            <mxPoint as="offset" />
          </mxGeometry>
        </mxCell>
        <mxCell id="NhowBKx1JFpCzWd0IGJK-11" value="1" style="edgeLabel;html=1;align=center;verticalAlign=middle;resizable=0;points=[];" vertex="1" connectable="0" parent="NhowBKx1JFpCzWd0IGJK-4">
          <mxGeometry x="-0.7425" relative="1" as="geometry">
            <mxPoint x="-19" y="-8" as="offset" />
          </mxGeometry>
        </mxCell>
        <mxCell id="NhowBKx1JFpCzWd0IGJK-12" value="1" style="edgeLabel;html=1;align=center;verticalAlign=middle;resizable=0;points=[];" vertex="1" connectable="0" parent="NhowBKx1JFpCzWd0IGJK-4">
          <mxGeometry x="0.7055" y="2" relative="1" as="geometry">
            <mxPoint x="16" y="16" as="offset" />
          </mxGeometry>
        </mxCell>
        <mxCell id="NhowBKx1JFpCzWd0IGJK-5" style="edgeStyle=orthogonalEdgeStyle;rounded=0;orthogonalLoop=1;jettySize=auto;html=1;exitX=0.5;exitY=1;exitDx=0;exitDy=0;entryX=0.5;entryY=0;entryDx=0;entryDy=0;" edge="1" parent="1" source="NhowBKx1JFpCzWd0IGJK-1" target="NhowBKx1JFpCzWd0IGJK-17">
          <mxGeometry relative="1" as="geometry">
            <mxPoint x="360" y="300" as="sourcePoint" />
            <mxPoint x="430" y="310" as="targetPoint" />
          </mxGeometry>
        </mxCell>
        <mxCell id="NhowBKx1JFpCzWd0IGJK-6" value="Contains" style="edgeLabel;html=1;align=center;verticalAlign=middle;resizable=0;points=[];" vertex="1" connectable="0" parent="NhowBKx1JFpCzWd0IGJK-5">
          <mxGeometry x="-0.0282" relative="1" as="geometry">
            <mxPoint as="offset" />
          </mxGeometry>
        </mxCell>
        <mxCell id="NhowBKx1JFpCzWd0IGJK-13" value="1" style="edgeLabel;html=1;align=center;verticalAlign=middle;resizable=0;points=[];" vertex="1" connectable="0" parent="NhowBKx1JFpCzWd0IGJK-5">
          <mxGeometry x="-0.9125" y="1" relative="1" as="geometry">
            <mxPoint x="9" y="7" as="offset" />
          </mxGeometry>
        </mxCell>
        <mxCell id="NhowBKx1JFpCzWd0IGJK-22" value="0..m" style="edgeLabel;html=1;align=center;verticalAlign=middle;resizable=0;points=[];" vertex="1" connectable="0" parent="NhowBKx1JFpCzWd0IGJK-5">
          <mxGeometry x="0.6501" y="-2" relative="1" as="geometry">
            <mxPoint x="-14" y="20" as="offset" />
          </mxGeometry>
        </mxCell>
        <mxCell id="NhowBKx1JFpCzWd0IGJK-17" value="CartItem" style="swimlane;fontStyle=1;align=center;verticalAlign=top;childLayout=stackLayout;horizontal=1;startSize=26;horizontalStack=0;resizeParent=1;resizeParentMax=0;resizeLast=0;collapsible=1;marginBottom=0;whiteSpace=wrap;html=1;" vertex="1" parent="1">
          <mxGeometry x="350" y="300" width="160" height="118" as="geometry" />
        </mxCell>
        <mxCell id="NhowBKx1JFpCzWd0IGJK-18" value="- selected: Boolean&lt;div&gt;- quantity: Number - int&lt;/div&gt;&lt;div&gt;- product: Relation&lt;/div&gt;" style="text;strokeColor=none;fillColor=none;align=left;verticalAlign=top;spacingLeft=4;spacingRight=4;overflow=hidden;rotatable=0;points=[[0,0.5],[1,0.5]];portConstraint=eastwest;whiteSpace=wrap;html=1;" vertex="1" parent="NhowBKx1JFpCzWd0IGJK-17">
          <mxGeometry y="26" width="160" height="84" as="geometry" />
        </mxCell>
        <mxCell id="NhowBKx1JFpCzWd0IGJK-19" value="" style="line;strokeWidth=1;fillColor=none;align=left;verticalAlign=middle;spacingTop=-1;spacingLeft=3;spacingRight=3;rotatable=0;labelPosition=right;points=[];portConstraint=eastwest;strokeColor=inherit;" vertex="1" parent="NhowBKx1JFpCzWd0IGJK-17">
          <mxGeometry y="110" width="160" height="8" as="geometry" />
        </mxCell>
        <mxCell id="NhowBKx1JFpCzWd0IGJK-20" style="edgeStyle=orthogonalEdgeStyle;rounded=0;orthogonalLoop=1;jettySize=auto;html=1;exitX=1;exitY=0.5;exitDx=0;exitDy=0;entryX=-0.017;entryY=0.665;entryDx=0;entryDy=0;entryPerimeter=0;" edge="1" parent="1" source="NhowBKx1JFpCzWd0IGJK-18" target="jSvjcwtI-bgLR1o23KVw-10">
          <mxGeometry relative="1" as="geometry" />
        </mxCell>
        <mxCell id="NhowBKx1JFpCzWd0IGJK-21" value="Presents" style="edgeLabel;html=1;align=center;verticalAlign=middle;resizable=0;points=[];" vertex="1" connectable="0" parent="NhowBKx1JFpCzWd0IGJK-20">
          <mxGeometry x="-0.1026" y="3" relative="1" as="geometry">
            <mxPoint x="7" y="13" as="offset" />
          </mxGeometry>
        </mxCell>
        <mxCell id="NhowBKx1JFpCzWd0IGJK-23" value="1" style="edgeLabel;html=1;align=center;verticalAlign=middle;resizable=0;points=[];" vertex="1" connectable="0" parent="NhowBKx1JFpCzWd0IGJK-20">
          <mxGeometry x="-0.7021" y="-1" relative="1" as="geometry">
            <mxPoint x="-11" y="-9" as="offset" />
          </mxGeometry>
        </mxCell>
        <mxCell id="NhowBKx1JFpCzWd0IGJK-24" value="1" style="edgeLabel;html=1;align=center;verticalAlign=middle;resizable=0;points=[];" vertex="1" connectable="0" parent="NhowBKx1JFpCzWd0IGJK-20">
          <mxGeometry x="-0.2319" relative="1" as="geometry">
            <mxPoint x="76" y="-8" as="offset" />
          </mxGeometry>
        </mxCell>
      </root>
    </mxGraphModel>
  </diagram>
</mxfile>
